# xmcd
# 
# Track frame offsets:
#     150
#     4872
#     23616
#     45542
#     62852
#     82246
#     96454
# 
# Disc length: 1500
# 
# Revision: 0
# Processed by: cddbd v1.5.2PL0 Copyright (c) Steve Scherf et al.
# Submitted via: fre:ac v1.0.17
# 
DISCID=5505da07
DTITLE=Tony Hussle - Sexy, Freaky, Electric
DYEAR=2005
DGENRE=Soul
TTITLE0=Intro
TTITLE1=Come Again
TTITLE2=In This House
TTITLE3=Special
TTITLE4=Wait
TTITLE5=Your Girl
TTITLE6=She's A Virgin Too
EXTD=
EXTT0=
EXTT1=
EXTT2=
EXTT3=
EXTT4=
EXTT5=
EXTT6=
PLAYORDER=
